<?xml version="1.0" encoding="UTF-8"?>
<svg xmlns="http://www.w3.org/2000/svg" viewBox="0 -12 339.5 632.5" font-family="ui-sans-serif, system-ui, sans-serif"><defs><marker id="arr" viewBox="0 0 10 10" refX="5" refY="5" markerWidth="5" markerHeight="5" orient="auto-start-reverse"><path d="M0,2 L10,5 L0,8 z" fill="var(--dim, #1f6fd1)"/></marker></defs><text x="4" y="-4" font-size="3.6" text-anchor="start" fill="var(--ink, #1d2430)"  dominant-baseline="auto" >6&quot; mirror, 203.2 mm (8&quot;) tube ID, RTV, 60 mm fan — all dimensions in mm</text><g transform="translate(23.5,0)"><text x="4" y="8" font-size="4.2" text-anchor="start" fill="var(--ink, #1d2430)"  dominant-baseline="auto" font-weight="600">REAR TUBE PLATE — viewed from the rear (outside the tube)</text><path d="M247.6,123.3A101.3,101.3 0 1,0 45,123.3A101.3,101.3 0 1,0 247.6,123.3ZM174.8,123.3A28.5,28.5 0 1,0 117.8,123.3A28.5,28.5 0 1,0 174.8,123.3ZM192,45.4L196.4,48.1L200.5,51.1L204.5,54.3L208.3,57.6L211.9,61.2L215.3,65L218.5,69L221.4,73.2L224.1,77.5L226.6,81.9L228.8,86.5L230.7,91.2L232.4,96L233.8,100.9L234.9,105.9L235.7,110.9L236.3,116L236.6,121L236.6,126.1L236.3,131.2L235.7,136.3L234.8,141.3L233.6,146.2L232.2,151.1L189.5,137.3L190.2,134.8L190.8,132.3L191.2,129.8L191.5,127.3L191.7,124.7L191.7,122.2L191.5,119.6L191.3,117.1L190.8,114.5L190.3,112L189.6,109.6L188.7,107.2L187.8,104.8L186.7,102.5L185.4,100.3L184.1,98.1L182.6,96L181,94L179.3,92.1L177.5,90.3L175.6,88.6L173.6,87L171.5,85.5L169.3,84.2ZM190.9,201.8L186.4,204.2L181.7,206.4L177,208.2L172.2,209.8L167.3,211.1L162.3,212.2L157.2,212.9L152.2,213.4L147.1,213.6L142,213.5L136.9,213.1L131.9,212.4L126.9,211.5L121.9,210.3L117.1,208.7L112.3,207L107.7,204.9L103.1,202.6L98.7,200.1L94.5,197.2L90.4,194.2L86.5,191L82.8,187.5L79.3,183.8L112.6,153.7L114.4,155.6L116.2,157.3L118.2,159L120.2,160.5L122.4,161.9L124.6,163.2L126.9,164.3L129.2,165.4L131.6,166.3L134.1,167L136.5,167.6L139.1,168.1L141.6,168.5L144.1,168.6L146.7,168.7L149.3,168.6L151.8,168.4L154.3,168L156.8,167.5L159.3,166.8L161.7,166L164.1,165.1L166.4,164L168.7,162.8ZM56,122.6L56.2,117.5L56.7,112.5L57.4,107.4L58.4,102.4L59.8,97.5L61.3,92.7L63.2,88L65.3,83.3L67.7,78.8L70.3,74.5L73.2,70.3L76.3,66.2L79.6,62.4L83.2,58.7L86.9,55.3L90.8,52L94.9,49L99.2,46.3L103.6,43.7L108.2,41.4L112.8,39.4L117.6,37.7L122.5,36.2L127.4,35L136.8,78.9L134.3,79.5L131.9,80.3L129.5,81.1L127.1,82.1L124.8,83.3L122.6,84.6L120.5,86L118.4,87.5L116.4,89.1L114.6,90.8L112.8,92.7L111.1,94.6L109.6,96.6L108.1,98.8L106.8,100.9L105.6,103.2L104.5,105.5L103.6,107.9L102.8,110.3L102.1,112.8L101.6,115.3L101.2,117.8L101,120.4L100.9,123Z" fill="var(--part, rgba(79,124,172,0.12))" stroke="var(--ink, #1d2430)" stroke-width="0.45"  fill-rule="evenodd"/><circle cx="146.3" cy="123.3" r="94.3" fill="none" stroke="var(--ink, #1d2430)" stroke-width="0.35" stroke-dasharray="2 1"/><circle cx="160.6" cy="75.9" r="6.2" fill="none" stroke="var(--ink, #1d2430)" stroke-width="0.45" /><circle cx="160.6" cy="75.9" r="2.8" fill="none" stroke="var(--ink, #1d2430)" stroke-width="0.35" /><circle cx="146.3" cy="73.8" r="2.7" fill="none" stroke="var(--ink, #1d2430)" stroke-width="0.35" /><circle cx="146.3" cy="73.8" r="6.4" fill="none" stroke="var(--hid, #8a94a3)" stroke-width="0.35" stroke-dasharray="1 1"/><circle cx="180.2" cy="159.4" r="6.2" fill="none" stroke="var(--ink, #1d2430)" stroke-width="0.45" /><circle cx="180.2" cy="159.4" r="2.8" fill="none" stroke="var(--ink, #1d2430)" stroke-width="0.35" /><circle cx="189.2" cy="148.1" r="2.7" fill="none" stroke="var(--ink, #1d2430)" stroke-width="0.35" /><circle cx="189.2" cy="148.1" r="6.4" fill="none" stroke="var(--hid, #8a94a3)" stroke-width="0.35" stroke-dasharray="1 1"/><circle cx="98.1" cy="134.6" r="6.2" fill="none" stroke="var(--ink, #1d2430)" stroke-width="0.45" /><circle cx="98.1" cy="134.6" r="2.8" fill="none" stroke="var(--ink, #1d2430)" stroke-width="0.35" /><circle cx="103.4" cy="148.1" r="2.7" fill="none" stroke="var(--ink, #1d2430)" stroke-width="0.35" /><circle cx="103.4" cy="148.1" r="6.4" fill="none" stroke="var(--hid, #8a94a3)" stroke-width="0.35" stroke-dasharray="1 1"/><circle cx="132.5" cy="90.8" r="2" fill="none" stroke="var(--ink, #1d2430)" stroke-width="0.35" /><circle cx="178.8" cy="109.5" r="2" fill="none" stroke="var(--ink, #1d2430)" stroke-width="0.35" /><circle cx="160.1" cy="155.8" r="2" fill="none" stroke="var(--ink, #1d2430)" stroke-width="0.35" /><circle cx="113.8" cy="137.1" r="2" fill="none" stroke="var(--ink, #1d2430)" stroke-width="0.35" /><path d="M129.7,84.2L185.4,106.7L162.9,162.4L107.2,139.9Z" fill="none" stroke="var(--hid, #8a94a3)" stroke-width="0.35" stroke-dasharray="3 1.5" fill-rule="evenodd"/><line x1="64.6" y1="76.2" x2="58.6" y2="72.7" stroke="var(--ink, #1d2430)" stroke-width="0.9"  /><line x1="146.3" y1="29" x2="146.3" y2="22" stroke="var(--ink, #1d2430)" stroke-width="0.9"  /><line x1="228" y1="76.2" x2="234" y2="72.7" stroke="var(--ink, #1d2430)" stroke-width="0.9"  /><line x1="228" y1="170.5" x2="234" y2="174" stroke="var(--ink, #1d2430)" stroke-width="0.9"  /><line x1="146.3" y1="217.6" x2="146.3" y2="224.6" stroke="var(--ink, #1d2430)" stroke-width="0.9"  /><line x1="64.6" y1="170.5" x2="58.6" y2="174" stroke="var(--ink, #1d2430)" stroke-width="0.9"  /><circle cx="146.3" cy="123.3" r="49.5" fill="none" stroke="var(--hid, #8a94a3)" stroke-width="0.35" stroke-dasharray="6 1.5 1 1.5"/><line x1="251.6" y1="123.3" x2="41" y2="123.3" stroke="var(--hid, #8a94a3)" stroke-width="0.2" stroke-dasharray="6 1.5 1 1.5" /><line x1="146.3" y1="228.6" x2="146.3" y2="18" stroke="var(--hid, #8a94a3)" stroke-width="0.2" stroke-dasharray="6 1.5 1 1.5" /><line x1="45" y1="122.5" x2="45" y2="10.5" stroke="var(--dim, #1f6fd1)" stroke-width="0.2"  /><line x1="247.6" y1="122.5" x2="247.6" y2="10.5" stroke="var(--dim, #1f6fd1)" stroke-width="0.2"  /><line x1="45" y1="12" x2="247.6" y2="12" stroke="var(--dim, #1f6fd1)" stroke-width="0.25"  marker-start="url(#arr)" marker-end="url(#arr)"/><text x="146.3" y="10.8" font-size="3.2" text-anchor="middle" fill="var(--dim, #1f6fd1)"  dominant-baseline="middle" >Ø202.6 (tube ID 203.2 − 0.6)</text><path d="M82.5,32.1L92.2,46.1" fill="none" stroke="var(--dim, #1f6fd1)" stroke-width="0.25" marker-end="url(#arr)"/><line x1="82.5" y1="32.1" x2="78.5" y2="32.1" stroke="var(--dim, #1f6fd1)" stroke-width="0.25"  /><text x="77.5" y="32.1" font-size="3.2" text-anchor="end" fill="var(--dim, #1f6fd1)"  dominant-baseline="middle" >Ø188.6 skirt ID</text><path d="M39.9,90.8L98.9,108.8" fill="none" stroke="var(--dim, #1f6fd1)" stroke-width="0.25" marker-end="url(#arr)"/><line x1="39.9" y1="90.8" x2="35.9" y2="90.8" stroke="var(--dim, #1f6fd1)" stroke-width="0.25"  /><text x="34.9" y="90.8" font-size="3.2" text-anchor="end" fill="var(--dim, #1f6fd1)"  dominant-baseline="middle" >Ø99.1 pair circle</text><path d="M210.1,214.5L162.6,146.6" fill="none" stroke="var(--dim, #1f6fd1)" stroke-width="0.25" marker-end="url(#arr)"/><line x1="210.1" y1="214.5" x2="214.1" y2="214.5" stroke="var(--dim, #1f6fd1)" stroke-width="0.25"  /><text x="215.1" y="214.5" font-size="3.2" text-anchor="start" fill="var(--dim, #1f6fd1)"  dominant-baseline="middle" >E Ø57 fan opening</text><line x1="146.3" y1="73.8" x2="164.3" y2="93.8" stroke="var(--dim, #1f6fd1)" stroke-width="0.2"  /><circle cx="146.3" cy="73.8" r="0.5" fill="var(--dim, #1f6fd1)" stroke="var(--dim, #1f6fd1)" stroke-width="0.35" /><text x="165.3" y="93.8" font-size="3.2" text-anchor="start" fill="var(--dim, #1f6fd1)"  dominant-baseline="middle" >B Ø5.4 thru (×3)</text><line x1="160.6" y1="75.9" x2="190.6" y2="87.9" stroke="var(--dim, #1f6fd1)" stroke-width="0.2"  /><circle cx="160.6" cy="75.9" r="0.5" fill="var(--dim, #1f6fd1)" stroke="var(--dim, #1f6fd1)" stroke-width="0.35" /><text x="191.6" y="87.9" font-size="3.2" text-anchor="start" fill="var(--dim, #1f6fd1)"  dominant-baseline="middle" >A Ø5.6 insert, boss Ø12.3 (×3)</text><path d="M146.3,59.8A63.5,63.5 0 0,1 164.7,62.5" fill="none" stroke="var(--dim, #1f6fd1)" stroke-width="0.25"  fill-rule="evenodd"/><path d="M146.3,59.8A63.5,63.5 0 0,1 164.7,62.5" fill="none" stroke="none" marker-start="url(#arr)" marker-end="url(#arr)"/><text x="156" y="57.5" font-size="3.2" text-anchor="middle" fill="var(--dim, #1f6fd1)"  dominant-baseline="middle" >16.8°</text><path d="M196.1,152.1A57.5,57.5 0 0,1 96.5,152.1" fill="none" stroke="var(--dim, #1f6fd1)" stroke-width="0.25"  fill-rule="evenodd"/><path d="M196.1,152.1A57.5,57.5 0 0,1 96.5,152.1" fill="none" stroke="none" marker-start="url(#arr)" marker-end="url(#arr)"/><text x="146.3" y="183.8" font-size="3.2" text-anchor="middle" fill="var(--dim, #1f6fd1)"  dominant-baseline="middle" >120°</text><line x1="114.1" y1="136.4" x2="118.4" y2="125.5" stroke="var(--dim, #1f6fd1)" stroke-width="0.2"  /><line x1="160.4" y1="155.1" x2="164.8" y2="144.3" stroke="var(--dim, #1f6fd1)" stroke-width="0.2"  /><line x1="117.9" y1="126.9" x2="164.2" y2="145.6" stroke="var(--dim, #1f6fd1)" stroke-width="0.25"  marker-start="url(#arr)" marker-end="url(#arr)"/><text x="141.5" y="135.2" font-size="3.2" text-anchor="middle" fill="var(--dim, #1f6fd1)" transform="rotate(21.999999999999982 141.5 135.2)" dominant-baseline="middle" >D 50 sq @ 22°, Ø4 insert (×4)</text><line x1="135.5" y1="190.3" x2="128.8" y2="231.2" stroke="var(--dim, #1f6fd1)" stroke-width="0.2"  /><circle cx="135.5" cy="190.3" r="0.5" fill="var(--dim, #1f6fd1)" stroke="var(--dim, #1f6fd1)" stroke-width="0.35" /><text x="127.8" y="231.2" font-size="3.2" text-anchor="end" fill="var(--dim, #1f6fd1)"  dominant-baseline="middle" >F R45.4–R90.3 × 77.5° (×3)</text><line x1="58.6" y1="174" x2="46.4" y2="181" stroke="var(--dim, #1f6fd1)" stroke-width="0.2"  /><circle cx="58.6" cy="174" r="0.5" fill="var(--dim, #1f6fd1)" stroke="var(--dim, #1f6fd1)" stroke-width="0.35" /><text x="45.4" y="181" font-size="3.2" text-anchor="end" fill="var(--dim, #1f6fd1)"  dominant-baseline="middle" >C Ø4.7 radial (×6)</text></g><g transform="translate(24.8,260.6)"><text x="4" y="8" font-size="4.2" text-anchor="start" fill="var(--ink, #1d2430)"  dominant-baseline="auto" font-weight="600">MIRROR PLATE — viewed from the front (mirror side)</text><path d="M205.7,115A60.7,60.7 0 1,0 84.2,115A60.7,60.7 0 1,0 205.7,115ZM173.5,115A28.5,28.5 0 1,0 116.5,115A28.5,28.5 0 1,0 173.5,115ZM115.5,98.5A12,12 0 1,0 91.5,98.5A12,12 0 1,0 115.5,98.5ZM163.5,159.1A12,12 0 1,0 139.5,159.1A12,12 0 1,0 163.5,159.1ZM191.9,87.2A12,12 0 1,0 167.9,87.2A12,12 0 1,0 191.9,87.2Z" fill="var(--part2, rgba(201,128,58,0.14))" stroke="var(--ink, #1d2430)" stroke-width="0.45"  fill-rule="evenodd"/><path d="M154.5,64.2L152,30L138,30L135.4,64.2Z" fill="var(--part2, rgba(201,128,58,0.14))" stroke="var(--ink, #1d2430)" stroke-width="0.45"  fill-rule="evenodd"/><path d="M152,38L152,30L138,30L138,38Z" fill="var(--part2, rgba(201,128,58,0.14))" stroke="var(--ink, #1d2430)" stroke-width="0.6"  fill-rule="evenodd"/><circle cx="145" cy="65.4" r="6.2" fill="var(--bg, #fff)" stroke="var(--ink, #1d2430)" stroke-width="0.5" /><circle cx="145" cy="65.4" r="4.7" fill="none" stroke="var(--ink, #1d2430)" stroke-width="0.35" stroke-dasharray="1 0.8"/><circle cx="145" cy="65.4" r="2.8" fill="none" stroke="var(--hid, #8a94a3)" stroke-width="0.35" stroke-dasharray="1.5 1"/><circle cx="130.6" cy="67.5" r="4.4" fill="none" stroke="var(--hid, #8a94a3)" stroke-width="0.35" stroke-dasharray="0.8 0.8"/><path d="M96.3,132.1L67.9,151.4L74.9,163.5L105.8,148.6Z" fill="var(--part2, rgba(201,128,58,0.14))" stroke="var(--ink, #1d2430)" stroke-width="0.45"  fill-rule="evenodd"/><path d="M74.8,147.4L67.9,151.4L74.9,163.5L81.8,159.5Z" fill="var(--part2, rgba(201,128,58,0.14))" stroke="var(--ink, #1d2430)" stroke-width="0.6"  fill-rule="evenodd"/><circle cx="102.1" cy="139.7" r="6.2" fill="var(--bg, #fff)" stroke="var(--ink, #1d2430)" stroke-width="0.5" /><circle cx="102.1" cy="139.7" r="4.7" fill="none" stroke="var(--ink, #1d2430)" stroke-width="0.35" stroke-dasharray="1 0.8"/><circle cx="102.1" cy="139.7" r="2.8" fill="none" stroke="var(--hid, #8a94a3)" stroke-width="0.35" stroke-dasharray="1.5 1"/><circle cx="111.1" cy="151.1" r="4.4" fill="none" stroke="var(--hid, #8a94a3)" stroke-width="0.35" stroke-dasharray="0.8 0.8"/><path d="M184.1,148.6L215,163.5L222,151.4L193.6,132.1Z" fill="var(--part2, rgba(201,128,58,0.14))" stroke="var(--ink, #1d2430)" stroke-width="0.45"  fill-rule="evenodd"/><path d="M208.1,159.5L215,163.5L222,151.4L215.1,147.4Z" fill="var(--part2, rgba(201,128,58,0.14))" stroke="var(--ink, #1d2430)" stroke-width="0.6"  fill-rule="evenodd"/><circle cx="187.8" cy="139.7" r="6.2" fill="var(--bg, #fff)" stroke="var(--ink, #1d2430)" stroke-width="0.5" /><circle cx="187.8" cy="139.7" r="4.7" fill="none" stroke="var(--ink, #1d2430)" stroke-width="0.35" stroke-dasharray="1 0.8"/><circle cx="187.8" cy="139.7" r="2.8" fill="none" stroke="var(--hid, #8a94a3)" stroke-width="0.35" stroke-dasharray="1.5 1"/><circle cx="193.2" cy="126.2" r="4.4" fill="none" stroke="var(--hid, #8a94a3)" stroke-width="0.35" stroke-dasharray="0.8 0.8"/><circle cx="145" cy="115" r="76.2" fill="none" stroke="var(--hid, #8a94a3)" stroke-width="0.35" stroke-dasharray="4 2"/><circle cx="145" cy="115" r="49.5" fill="none" stroke="var(--hid, #8a94a3)" stroke-width="0.35" stroke-dasharray="6 1.5 1 1.5"/><path d="M48.1,111.6L84.3,112.8" fill="none" stroke="var(--dim, #1f6fd1)" stroke-width="0.25" marker-end="url(#arr)"/><line x1="48.1" y1="111.6" x2="44.1" y2="111.6" stroke="var(--dim, #1f6fd1)" stroke-width="0.25"  /><text x="43.1" y="111.6" font-size="3.2" text-anchor="end" fill="var(--dim, #1f6fd1)"  dominant-baseline="middle" >Ø121.5 core</text><path d="M50.8,145.5L97.8,130.3" fill="none" stroke="var(--dim, #1f6fd1)" stroke-width="0.25" marker-end="url(#arr)"/><line x1="50.8" y1="145.5" x2="46.8" y2="145.5" stroke="var(--dim, #1f6fd1)" stroke-width="0.25"  /><text x="45.8" y="145.5" font-size="3.2" text-anchor="end" fill="var(--dim, #1f6fd1)"  dominant-baseline="middle" >Ø99.1 pad circle (0.65 D)</text><path d="M72.9,50.1L88.3,64" fill="none" stroke="var(--dim, #1f6fd1)" stroke-width="0.25" marker-end="url(#arr)"/><line x1="72.9" y1="50.1" x2="68.9" y2="50.1" stroke="var(--dim, #1f6fd1)" stroke-width="0.25"  /><text x="67.9" y="50.1" font-size="3.2" text-anchor="end" fill="var(--dim, #1f6fd1)"  dominant-baseline="middle" >Ø152.4 mirror (ghost)</text><path d="M217,50.1L166.1,95.9" fill="none" stroke="var(--dim, #1f6fd1)" stroke-width="0.25" marker-end="url(#arr)"/><line x1="217" y1="50.1" x2="221" y2="50.1" stroke="var(--dim, #1f6fd1)" stroke-width="0.25"  /><text x="222" y="50.1" font-size="3.2" text-anchor="start" fill="var(--dim, #1f6fd1)"  dominant-baseline="middle" >I Ø57 central vent</text><line x1="145" y1="65.4" x2="161" y2="24" stroke="var(--dim, #1f6fd1)" stroke-width="0.2"  /><circle cx="145" cy="65.4" r="0.5" fill="var(--dim, #1f6fd1)" stroke="var(--dim, #1f6fd1)" stroke-width="0.35" /><text x="162" y="24" font-size="3.2" text-anchor="start" fill="var(--dim, #1f6fd1)"  dominant-baseline="middle" >pad Ø12.4; G Ø5.6×10.9 from rear; H cup Ø9.4×2</text><line x1="130.6" y1="67.5" x2="104.6" y2="34" stroke="var(--dim, #1f6fd1)" stroke-width="0.2"  /><circle cx="130.6" cy="67.5" r="0.5" fill="var(--dim, #1f6fd1)" stroke="var(--dim, #1f6fd1)" stroke-width="0.35" /><text x="103.6" y="34" font-size="3.2" text-anchor="end" fill="var(--dim, #1f6fd1)"  dominant-baseline="middle" >push-bolt contact</text><line x1="152" y1="29.2" x2="152" y2="23.5" stroke="var(--dim, #1f6fd1)" stroke-width="0.2"  /><line x1="138" y1="29.2" x2="138" y2="23.5" stroke="var(--dim, #1f6fd1)" stroke-width="0.2"  /><line x1="152" y1="25" x2="138" y2="25" stroke="var(--dim, #1f6fd1)" stroke-width="0.25"  marker-start="url(#arr)" marker-end="url(#arr)"/><text x="145" y="23.8" font-size="3.2" text-anchor="middle" fill="var(--dim, #1f6fd1)" transform="rotate(360 145 23.8)" dominant-baseline="middle" >14</text><line x1="215.1" y1="155.4" x2="229.1" y2="169.4" stroke="var(--dim, #1f6fd1)" stroke-width="0.2"  /><circle cx="215.1" cy="155.4" r="0.5" fill="var(--dim, #1f6fd1)" stroke="var(--dim, #1f6fd1)" stroke-width="0.35" /><text x="230.1" y="169.4" font-size="3.2" text-anchor="start" fill="var(--dim, #1f6fd1)"  dominant-baseline="middle" >lateral stop 8×14 (×3)</text><text x="69.4" y="171.4" font-size="3.2" text-anchor="end" fill="var(--dim, #1f6fd1)"  dominant-baseline="auto" >arm 19 → 14 wide</text><text x="145" y="217.9" font-size="3.2" text-anchor="middle" fill="var(--ink, #1d2430)"  dominant-baseline="auto" >mirror-to-post gap 0.75 mm radial; posts at R76.9–R84.9</text><line x1="179.9" y1="87.2" x2="211.7" y2="91.2" stroke="var(--dim, #1f6fd1)" stroke-width="0.2"  /><circle cx="179.9" cy="87.2" r="0.5" fill="var(--dim, #1f6fd1)" stroke="var(--dim, #1f6fd1)" stroke-width="0.35" /><text x="212.7" y="91.2" font-size="3.2" text-anchor="start" fill="var(--dim, #1f6fd1)"  dominant-baseline="middle" >J Ø24 (×3) @ R44.6</text></g><g transform="translate(0,498.5)"><text x="4" y="8" font-size="4.2" text-anchor="start" fill="var(--ink, #1d2430)"  dominant-baseline="auto" font-weight="600">SECTION A–A through push-pull pair 1 (push bolt projected)</text><path d="M271.4,104L274.5,104L274.5,26L271.4,26Z" fill="none" stroke="var(--hid, #8a94a3)" stroke-width="0.35" stroke-dasharray="3 1.5" fill-rule="evenodd"/><path d="M65,104L68.2,104L68.2,26L65,26Z" fill="none" stroke="var(--hid, #8a94a3)" stroke-width="0.35" stroke-dasharray="3 1.5" fill-rule="evenodd"/><path d="M264.1,101.9L271.1,101.9L271.1,84.9L264.1,84.9Z" fill="var(--part, rgba(79,124,172,0.12))" stroke="var(--ink, #1d2430)" stroke-width="0.45"  fill-rule="evenodd"/><path d="M75.5,101.9L68.5,101.9L68.5,84.9L75.5,84.9Z" fill="var(--part, rgba(79,124,172,0.12))" stroke="var(--ink, #1d2430)" stroke-width="0.45"  fill-rule="evenodd"/><path d="M68.5,91.4L271.1,91.4L271.1,84.9L68.5,84.9Z" fill="var(--part, rgba(79,124,172,0.12))" stroke="var(--ink, #1d2430)" stroke-width="0.45"  fill-rule="evenodd"/><path d="M211,95.4L223.3,95.4L223.3,91.4L211,91.4Z" fill="var(--part, rgba(79,124,172,0.12))" stroke="var(--ink, #1d2430)" stroke-width="0.45" stroke-dasharray="2 1" fill-rule="evenodd"/><path d="M109,68.8L230.5,68.8L230.5,62.3L109,62.3Z" fill="var(--part2, rgba(201,128,58,0.14))" stroke="var(--ink, #1d2430)" stroke-width="0.45"  fill-rule="evenodd"/><path d="M246.7,68.8L254.7,68.8L254.7,40.7L246.7,40.7Z" fill="var(--part2, rgba(201,128,58,0.14))" stroke="var(--ink, #1d2430)" stroke-width="0.45"  fill-rule="evenodd"/><path d="M220.5,68.8L254.7,68.8L254.7,62.3L220.5,62.3Z" fill="var(--part2, rgba(201,128,58,0.14))" stroke="var(--ink, #1d2430)" stroke-width="0.45"  fill-rule="evenodd"/><path d="M213.1,68.8L225.5,68.8L225.5,53.4L213.1,53.4Z" fill="var(--part2, rgba(201,128,58,0.14))" stroke="var(--ink, #1d2430)" stroke-width="0.45"  fill-rule="evenodd"/><path d="M216.5,68.8L222.1,68.8L222.1,57.9L216.5,57.9Z" fill="var(--bg, #fff)" stroke="var(--ink, #1d2430)" stroke-width="0.3"  fill-rule="evenodd"/><path d="M93.6,53.4L246,53.4L246,28L93.6,28Z" fill="var(--ghost, rgba(120,170,220,0.18))" stroke="var(--hid, #8a94a3)" stroke-width="0.35" stroke-dasharray="4 2" fill-rule="evenodd"/><line x1="219.3" y1="99.5" x2="219.3" y2="60.9" stroke="var(--hid, #8a94a3)" stroke-width="0.25" stroke-dasharray="4 1 1 1" /><line x1="217.2" y1="113.7" x2="217.2" y2="66.8" stroke="var(--hid, #8a94a3)" stroke-width="0.25" stroke-dasharray="4 1 1 1" /><line x1="59.8" y1="101.9" x2="66.5" y2="101.9" stroke="var(--dim, #1f6fd1)" stroke-width="0.2"  /><line x1="59.8" y1="84.9" x2="66.5" y2="84.9" stroke="var(--dim, #1f6fd1)" stroke-width="0.2"  /><line x1="65" y1="101.9" x2="65" y2="84.9" stroke="var(--dim, #1f6fd1)" stroke-width="0.25"  marker-start="url(#arr)" marker-end="url(#arr)"/><text x="66.2" y="93.4" font-size="3.2" text-anchor="middle" fill="var(--dim, #1f6fd1)" transform="rotate(90 66.2 93.4)" dominant-baseline="middle" >17</text><line x1="77.3" y1="91.4" x2="78.1" y2="91.4" stroke="var(--dim, #1f6fd1)" stroke-width="0.2"  /><line x1="77.3" y1="84.9" x2="78.1" y2="84.9" stroke="var(--dim, #1f6fd1)" stroke-width="0.2"  /><line x1="76.6" y1="91.4" x2="76.6" y2="84.9" stroke="var(--dim, #1f6fd1)" stroke-width="0.25"  marker-start="url(#arr)" marker-end="url(#arr)"/><text x="77.8" y="88.2" font-size="3.2" text-anchor="middle" fill="var(--dim, #1f6fd1)" transform="rotate(90 77.8 88.2)" dominant-baseline="middle" >6.5</text><line x1="59.8" y1="84.9" x2="76.5" y2="84.9" stroke="var(--dim, #1f6fd1)" stroke-width="0.2"  /><line x1="59.8" y1="68.8" x2="76.5" y2="68.8" stroke="var(--dim, #1f6fd1)" stroke-width="0.2"  /><line x1="75" y1="84.9" x2="75" y2="68.8" stroke="var(--dim, #1f6fd1)" stroke-width="0.25"  marker-start="url(#arr)" marker-end="url(#arr)"/><text x="76.2" y="76.9" font-size="3.2" text-anchor="middle" fill="var(--dim, #1f6fd1)" transform="rotate(90 76.2 76.9)" dominant-baseline="middle" >16.2</text><line x1="117.8" y1="68.8" x2="118.6" y2="68.8" stroke="var(--dim, #1f6fd1)" stroke-width="0.2"  /><line x1="117.8" y1="62.3" x2="118.6" y2="62.3" stroke="var(--dim, #1f6fd1)" stroke-width="0.2"  /><line x1="117.1" y1="68.8" x2="117.1" y2="62.3" stroke="var(--dim, #1f6fd1)" stroke-width="0.25"  marker-start="url(#arr)" marker-end="url(#arr)"/><text x="118.3" y="65.5" font-size="3.2" text-anchor="middle" fill="var(--dim, #1f6fd1)" transform="rotate(90 118.3 65.5)" dominant-baseline="middle" >6.5</text><line x1="59.8" y1="68.8" x2="66.5" y2="68.8" stroke="var(--dim, #1f6fd1)" stroke-width="0.2"  /><line x1="59.8" y1="53.4" x2="66.5" y2="53.4" stroke="var(--dim, #1f6fd1)" stroke-width="0.2"  /><line x1="65" y1="68.8" x2="65" y2="53.4" stroke="var(--dim, #1f6fd1)" stroke-width="0.25"  marker-start="url(#arr)" marker-end="url(#arr)"/><text x="66.2" y="61.1" font-size="3.2" text-anchor="middle" fill="var(--dim, #1f6fd1)" transform="rotate(90 66.2 61.1)" dominant-baseline="middle" >15.4</text><line x1="59.8" y1="53.4" x2="76.5" y2="53.4" stroke="var(--dim, #1f6fd1)" stroke-width="0.2"  /><line x1="59.8" y1="28" x2="76.5" y2="28" stroke="var(--dim, #1f6fd1)" stroke-width="0.2"  /><line x1="75" y1="53.4" x2="75" y2="28" stroke="var(--dim, #1f6fd1)" stroke-width="0.25"  marker-start="url(#arr)" marker-end="url(#arr)"/><text x="76.2" y="40.7" font-size="3.2" text-anchor="middle" fill="var(--dim, #1f6fd1)" transform="rotate(90 76.2 40.7)" dominant-baseline="middle" >mirror 25.4</text><line x1="59.8" y1="101.9" x2="87.5" y2="101.9" stroke="var(--dim, #1f6fd1)" stroke-width="0.2"  /><line x1="59.8" y1="28" x2="87.5" y2="28" stroke="var(--dim, #1f6fd1)" stroke-width="0.2"  /><line x1="86" y1="101.9" x2="86" y2="28" stroke="var(--dim, #1f6fd1)" stroke-width="0.25"  marker-start="url(#arr)" marker-end="url(#arr)"/><text x="87.2" y="65" font-size="3.2" text-anchor="middle" fill="var(--dim, #1f6fd1)" transform="rotate(90 87.2 65)" dominant-baseline="middle" >overall 73.9</text><line x1="279.7" y1="68.8" x2="271" y2="68.8" stroke="var(--dim, #1f6fd1)" stroke-width="0.2"  /><line x1="279.7" y1="40.7" x2="271" y2="40.7" stroke="var(--dim, #1f6fd1)" stroke-width="0.2"  /><line x1="272.5" y1="68.8" x2="272.5" y2="40.7" stroke="var(--dim, #1f6fd1)" stroke-width="0.25"  marker-start="url(#arr)" marker-end="url(#arr)"/><text x="271.3" y="54.7" font-size="3.2" text-anchor="middle" fill="var(--dim, #1f6fd1)" transform="rotate(90 271.3 54.7)" dominant-baseline="middle" >post 28.1</text><line x1="279.7" y1="101.9" x2="261" y2="101.9" stroke="var(--dim, #1f6fd1)" stroke-width="0.2"  /><line x1="279.7" y1="96.7" x2="261" y2="96.7" stroke="var(--dim, #1f6fd1)" stroke-width="0.2"  /><line x1="262.5" y1="101.9" x2="262.5" y2="96.7" stroke="var(--dim, #1f6fd1)" stroke-width="0.25"  marker-start="url(#arr)" marker-end="url(#arr)"/><text x="261.3" y="99.3" font-size="3.2" text-anchor="middle" fill="var(--dim, #1f6fd1)" transform="rotate(90 261.3 99.3)" dominant-baseline="middle" >5.3</text><line x1="211" y1="99.1" x2="211" y2="99.9" stroke="var(--dim, #1f6fd1)" stroke-width="0.2"  /><line x1="223.3" y1="99.1" x2="223.3" y2="99.9" stroke="var(--dim, #1f6fd1)" stroke-width="0.2"  /><line x1="211" y1="98.4" x2="223.3" y2="98.4" stroke="var(--dim, #1f6fd1)" stroke-width="0.25"  marker-start="url(#arr)" marker-end="url(#arr)"/><text x="217.2" y="99.6" font-size="3.2" text-anchor="middle" fill="var(--dim, #1f6fd1)"  dominant-baseline="middle" >boss 10.4 tall</text><line x1="219.3" y1="54.4" x2="189.3" y2="25" stroke="var(--dim, #1f6fd1)" stroke-width="0.2"  /><circle cx="219.3" cy="54.4" r="0.5" fill="var(--dim, #1f6fd1)" stroke="var(--dim, #1f6fd1)" stroke-width="0.35" /><text x="188.3" y="25" font-size="3.2" text-anchor="end" fill="var(--dim, #1f6fd1)"  dominant-baseline="middle" >RTV 2 mm in pad cup</text><line x1="219.3" y1="63.3" x2="245.3" y2="72.8" stroke="var(--dim, #1f6fd1)" stroke-width="0.2"  /><circle cx="219.3" cy="63.3" r="0.5" fill="var(--dim, #1f6fd1)" stroke="var(--dim, #1f6fd1)" stroke-width="0.35" /><text x="246.3" y="72.8" font-size="3.2" text-anchor="start" fill="var(--dim, #1f6fd1)"  dominant-baseline="middle" >pull #10-24×1-1/4&quot;</text><line x1="217.2" y1="82.9" x2="181.2" y2="75.9" stroke="var(--dim, #1f6fd1)" stroke-width="0.2"  /><circle cx="217.2" cy="82.9" r="0.5" fill="var(--dim, #1f6fd1)" stroke="var(--dim, #1f6fd1)" stroke-width="0.35" /><text x="180.2" y="75.9" font-size="3.2" text-anchor="end" fill="var(--dim, #1f6fd1)"  dominant-baseline="middle" >push #10-24×1-1/2&quot; + jam nut</text><text x="169.8" y="112" font-size="3.2" text-anchor="middle" fill="var(--ink, #1d2430)"  dominant-baseline="auto" >z = 0 at the rear end of the tube; rear-plate skirt is flush with the tube end</text></g></svg>