<?xml version="1.0" encoding="UTF-8"?>
<svg xmlns="http://www.w3.org/2000/svg" viewBox="0 -12 390.4 825.5" font-family="ui-sans-serif, system-ui, sans-serif"><defs><marker id="arr" viewBox="0 0 10 10" refX="5" refY="5" markerWidth="5" markerHeight="5" orient="auto-start-reverse"><path d="M0,2 L10,5 L0,8 z" fill="var(--dim, #1f6fd1)"/></marker></defs><text x="4" y="-4" font-size="3.6" text-anchor="start" fill="var(--ink, #1d2430)"  dominant-baseline="auto" >8&quot; mirror, 254 mm (10&quot;) tube ID, clips, 80 mm fan — all dimensions in mm</text><g transform="translate(23.5,0)"><text x="4" y="8" font-size="4.2" text-anchor="start" fill="var(--ink, #1d2430)"  dominant-baseline="auto" font-weight="600">REAR TUBE PLATE — viewed from the rear (outside the tube)</text><path d="M170.2,69.7L176.5,22.1L179.5,22.2L182.5,22.5L185.5,22.8L188.5,23.1L191.5,23.6L194.4,24.1L197.4,24.6L200.3,25.3L193.9,72.9L199.5,74.8L205,77L210.2,79.7L215.2,82.8L220,86.2L224.5,90L228.8,94.1L232.7,98.5L236.3,103.2L239.5,108.1L242.3,113.3L244.7,118.6L246.8,124.1L248.4,129.8L249.6,135.6L250.4,141.4L250.7,147.3L250.6,153.2L250,159L249,164.8L247.6,170.6L245.8,176.2L243.5,181.6L240.9,186.9L278.9,216.2L277.3,218.7L275.6,221.2L273.9,223.6L272.1,226L270.2,228.4L268.3,230.7L266.3,233L264.3,235.2L226.2,205.9L221.8,209.8L217.1,213.3L212.2,216.5L207,219.4L201.7,221.8L196.1,223.8L190.5,225.4L184.7,226.6L178.9,227.4L173,227.7L167.1,227.6L161.2,227L155.4,226L149.7,224.6L144.1,222.7L138.7,220.5L133.4,217.8L128.4,214.8L123.6,211.4L119.1,207.6L114.8,203.5L110.9,199.1L107.3,194.5L104.1,189.5L59.6,207.8L58.3,205.2L57,202.5L55.7,199.7L54.5,197L53.4,194.2L52.4,191.3L51.4,188.5L50.5,185.6L94.9,167.3L93.8,161.6L93,155.7L92.7,149.8L92.8,144L93.4,138.1L94.4,132.3L95.9,126.6L97.7,121L100,115.6L102.7,110.3L105.7,105.3L109.1,100.5L112.9,96L117,91.7L121.4,87.8L126.1,84.2L131,81L136.1,78.2L141.5,75.7L147,73.7L152.7,72L158.4,70.8L164.3,70ZM209.7,148.7A38,38 0 1,0 133.7,148.7A38,38 0 1,0 209.7,148.7Z" fill="var(--part, rgba(79,124,172,0.12))" stroke="var(--ink, #1d2430)" stroke-width="0.45"  fill-rule="evenodd"/><line x1="175.3" y1="30.8" x2="199.1" y2="34" stroke="var(--ink, #1d2430)" stroke-width="0.35" stroke-dasharray="2 1" /><line x1="271.9" y1="210.8" x2="257.3" y2="229.8" stroke="var(--ink, #1d2430)" stroke-width="0.35" stroke-dasharray="2 1" /><line x1="67.8" y1="204.5" x2="58.7" y2="182.3" stroke="var(--ink, #1d2430)" stroke-width="0.35" stroke-dasharray="2 1" /><circle cx="189" cy="85" r="7.2" fill="none" stroke="var(--ink, #1d2430)" stroke-width="0.45" /><circle cx="189" cy="85" r="3.8" fill="none" stroke="var(--ink, #1d2430)" stroke-width="0.35" /><circle cx="171.7" cy="82.7" r="3.5" fill="none" stroke="var(--ink, #1d2430)" stroke-width="0.35" /><circle cx="171.7" cy="82.7" r="8" fill="none" stroke="var(--hid, #8a94a3)" stroke-width="0.35" stroke-dasharray="1 1"/><circle cx="218.2" cy="195.6" r="7.2" fill="none" stroke="var(--ink, #1d2430)" stroke-width="0.45" /><circle cx="218.2" cy="195.6" r="3.8" fill="none" stroke="var(--ink, #1d2430)" stroke-width="0.35" /><circle cx="228.9" cy="181.7" r="3.5" fill="none" stroke="var(--ink, #1d2430)" stroke-width="0.35" /><circle cx="228.9" cy="181.7" r="8" fill="none" stroke="var(--hid, #8a94a3)" stroke-width="0.35" stroke-dasharray="1 1"/><circle cx="107.8" cy="165.5" r="7.2" fill="none" stroke="var(--ink, #1d2430)" stroke-width="0.45" /><circle cx="107.8" cy="165.5" r="3.8" fill="none" stroke="var(--ink, #1d2430)" stroke-width="0.35" /><circle cx="114.5" cy="181.7" r="3.5" fill="none" stroke="var(--ink, #1d2430)" stroke-width="0.35" /><circle cx="114.5" cy="181.7" r="8" fill="none" stroke="var(--hid, #8a94a3)" stroke-width="0.35" stroke-dasharray="1 1"/><circle cx="151.9" cy="102.2" r="1.4" fill="none" stroke="var(--ink, #1d2430)" stroke-width="0.35" /><circle cx="218.2" cy="128.9" r="1.4" fill="none" stroke="var(--ink, #1d2430)" stroke-width="0.35" /><circle cx="191.5" cy="195.2" r="1.4" fill="none" stroke="var(--ink, #1d2430)" stroke-width="0.35" /><circle cx="125.2" cy="168.5" r="1.4" fill="none" stroke="var(--ink, #1d2430)" stroke-width="0.35" /><path d="M149.6,96.6L223.8,126.6L193.8,200.8L119.6,170.8Z" fill="none" stroke="var(--hid, #8a94a3)" stroke-width="0.35" stroke-dasharray="3 1.5" fill-rule="evenodd"/><line x1="187.2" y1="32.4" x2="188.5" y2="23.1" stroke="var(--ink, #1d2430)" stroke-width="0.9"  /><line x1="264.6" y1="220.3" x2="272.1" y2="226" stroke="var(--ink, #1d2430)" stroke-width="0.9"  /><line x1="63.2" y1="193.4" x2="54.5" y2="197" stroke="var(--ink, #1d2430)" stroke-width="0.9"  /><circle cx="171.7" cy="148.7" r="66" fill="none" stroke="var(--hid, #8a94a3)" stroke-width="0.35" stroke-dasharray="6 1.5 1 1.5"/><line x1="302.4" y1="148.7" x2="41" y2="148.7" stroke="var(--hid, #8a94a3)" stroke-width="0.2" stroke-dasharray="6 1.5 1 1.5" /><line x1="171.7" y1="279.4" x2="171.7" y2="18" stroke="var(--hid, #8a94a3)" stroke-width="0.2" stroke-dasharray="6 1.5 1 1.5" /><line x1="272.1" y1="226" x2="258.1" y2="238" stroke="var(--dim, #1f6fd1)" stroke-width="0.2"  /><circle cx="272.1" cy="226" r="0.5" fill="var(--dim, #1f6fd1)" stroke="var(--dim, #1f6fd1)" stroke-width="0.35" /><text x="257.1" y="238" font-size="3.2" text-anchor="end" fill="var(--dim, #1f6fd1)"  dominant-baseline="middle" >tips on Ø253.4 (ID 254 − 0.6); pads 24 × 9.4</text><path d="M93.3,36.7L126.4,84" fill="none" stroke="var(--dim, #1f6fd1)" stroke-width="0.25" marker-end="url(#arr)"/><line x1="93.3" y1="36.7" x2="89.3" y2="36.7" stroke="var(--dim, #1f6fd1)" stroke-width="0.25"  /><text x="88.3" y="36.7" font-size="3.2" text-anchor="end" fill="var(--dim, #1f6fd1)"  dominant-baseline="middle" >Ø158 hub, 24 mm spokes, R6 roots</text><path d="M184.8,50.6A99,99 0 0,0 171.7,49.7" fill="none" stroke="var(--dim, #1f6fd1)" stroke-width="0.25"  fill-rule="evenodd"/><path d="M184.8,50.6A99,99 0 0,0 171.7,49.7" fill="none" stroke="none" marker-start="url(#arr)" marker-end="url(#arr)"/><text x="178.5" y="46.9" font-size="3.2" text-anchor="middle" fill="var(--dim, #1f6fd1)"  dominant-baseline="middle" >spoke 7.6° from B</text><path d="M41,108.7L108.5,129.4" fill="none" stroke="var(--dim, #1f6fd1)" stroke-width="0.25" marker-end="url(#arr)"/><line x1="41" y1="108.7" x2="37" y2="108.7" stroke="var(--dim, #1f6fd1)" stroke-width="0.25"  /><text x="36" y="108.7" font-size="3.2" text-anchor="end" fill="var(--dim, #1f6fd1)"  dominant-baseline="middle" >Ø132.1 pair circle</text><path d="M273.3,57.2L199.9,123.3" fill="none" stroke="var(--dim, #1f6fd1)" stroke-width="0.25" marker-end="url(#arr)"/><line x1="273.3" y1="57.2" x2="277.3" y2="57.2" stroke="var(--dim, #1f6fd1)" stroke-width="0.25"  /><text x="278.3" y="57.2" font-size="3.2" text-anchor="start" fill="var(--dim, #1f6fd1)"  dominant-baseline="middle" >E Ø76 fan opening</text><line x1="171.7" y1="82.7" x2="189.7" y2="102.7" stroke="var(--dim, #1f6fd1)" stroke-width="0.2"  /><circle cx="171.7" cy="82.7" r="0.5" fill="var(--dim, #1f6fd1)" stroke="var(--dim, #1f6fd1)" stroke-width="0.35" /><text x="190.7" y="102.7" font-size="3.2" text-anchor="start" fill="var(--dim, #1f6fd1)"  dominant-baseline="middle" >B Ø7 thru (×3)</text><line x1="189" y1="85" x2="219" y2="97" stroke="var(--dim, #1f6fd1)" stroke-width="0.2"  /><circle cx="189" cy="85" r="0.5" fill="var(--dim, #1f6fd1)" stroke="var(--dim, #1f6fd1)" stroke-width="0.35" /><text x="220" y="97" font-size="3.2" text-anchor="start" fill="var(--dim, #1f6fd1)"  dominant-baseline="middle" >A Ø7.6 insert, boss Ø14.4 (×3)</text><path d="M171.7,68.7A80,80 0 0,1 192.7,71.5" fill="none" stroke="var(--dim, #1f6fd1)" stroke-width="0.25"  fill-rule="evenodd"/><path d="M171.7,68.7A80,80 0 0,1 192.7,71.5" fill="none" stroke="none" marker-start="url(#arr)" marker-end="url(#arr)"/><text x="182.7" y="66.4" font-size="3.2" text-anchor="middle" fill="var(--dim, #1f6fd1)"  dominant-baseline="middle" >15.2°</text><path d="M235.8,185.7A74,74 0 0,1 107.6,185.7" fill="none" stroke="var(--dim, #1f6fd1)" stroke-width="0.25"  fill-rule="evenodd"/><path d="M235.8,185.7A74,74 0 0,1 107.6,185.7" fill="none" stroke="none" marker-start="url(#arr)" marker-end="url(#arr)"/><text x="171.7" y="225.7" font-size="3.2" text-anchor="middle" fill="var(--dim, #1f6fd1)"  dominant-baseline="middle" >120°</text><line x1="125.5" y1="167.7" x2="129.6" y2="157.6" stroke="var(--dim, #1f6fd1)" stroke-width="0.2"  /><line x1="191.8" y1="194.5" x2="195.9" y2="184.3" stroke="var(--dim, #1f6fd1)" stroke-width="0.2"  /><line x1="129" y1="159" x2="195.3" y2="185.7" stroke="var(--dim, #1f6fd1)" stroke-width="0.25"  marker-start="url(#arr)" marker-end="url(#arr)"/><text x="162.6" y="171.2" font-size="3.2" text-anchor="middle" fill="var(--dim, #1f6fd1)" transform="rotate(22.00000000000001 162.6 171.2)" dominant-baseline="middle" >D 71.5 sq @ 22°, Ø2.8 pilot (×4)</text><line x1="54.5" y1="197" x2="41.6" y2="202.3" stroke="var(--dim, #1f6fd1)" stroke-width="0.2"  /><circle cx="54.5" cy="197" r="0.5" fill="var(--dim, #1f6fd1)" stroke="var(--dim, #1f6fd1)" stroke-width="0.35" /><text x="40.6" y="202.3" font-size="3.2" text-anchor="end" fill="var(--dim, #1f6fd1)"  dominant-baseline="middle" >C Ø7.6 radial (×3)</text></g><g transform="translate(21.8,311.4)"><text x="4" y="8" font-size="4.2" text-anchor="start" fill="var(--ink, #1d2430)"  dominant-baseline="auto" font-weight="600">MIRROR PLATE — viewed from the front (mirror side)</text><path d="M251.6,143.4A78.2,78.2 0 1,0 95.1,143.4A78.2,78.2 0 1,0 251.6,143.4ZM211.4,143.4A38,38 0 1,0 135.4,143.4A38,38 0 1,0 211.4,143.4ZM135.6,121.2A16,16 0 1,0 103.6,121.2A16,16 0 1,0 135.6,121.2ZM197.1,201A16,16 0 1,0 165.1,201A16,16 0 1,0 197.1,201ZM235.4,107.9A16,16 0 1,0 203.4,107.9A16,16 0 1,0 235.4,107.9Z" fill="var(--part2, rgba(201,128,58,0.14))" stroke="var(--ink, #1d2430)" stroke-width="0.45"  fill-rule="evenodd"/><path d="M186.1,75.1L181.4,30L165.4,30L160.7,75.1Z" fill="var(--part2, rgba(201,128,58,0.14))" stroke="var(--ink, #1d2430)" stroke-width="0.45"  fill-rule="evenodd"/><path d="M176.4,75.1L176.4,41L170.4,41L170.4,75.1Z" fill="var(--part2, rgba(201,128,58,0.14))" stroke="var(--ink, #1d2430)" stroke-width="0.3"  fill-rule="evenodd"/><path d="M181.4,41L181.4,30L165.4,30L165.4,41Z" fill="var(--part2, rgba(201,128,58,0.14))" stroke="var(--ink, #1d2430)" stroke-width="0.6"  fill-rule="evenodd"/><circle cx="173.4" cy="77.3" r="7.2" fill="var(--bg, #fff)" stroke="var(--ink, #1d2430)" stroke-width="0.5" /><circle cx="173.4" cy="77.3" r="3.8" fill="none" stroke="var(--hid, #8a94a3)" stroke-width="0.35" stroke-dasharray="1.5 1"/><circle cx="156" cy="79.6" r="5.2" fill="none" stroke="var(--hid, #8a94a3)" stroke-width="0.35" stroke-dasharray="0.8 0.8"/><circle cx="173.4" cy="35.5" r="2" fill="none" stroke="var(--ink, #1d2430)" stroke-width="0.35" /><path d="M107.9,166.5L71.2,193.1L79.2,207L120.6,188.5Z" fill="var(--part2, rgba(201,128,58,0.14))" stroke="var(--ink, #1d2430)" stroke-width="0.45"  fill-rule="evenodd"/><path d="M112.8,174.9L83.2,191.9L86.2,197.1L115.8,180.1Z" fill="var(--part2, rgba(201,128,58,0.14))" stroke="var(--ink, #1d2430)" stroke-width="0.3"  fill-rule="evenodd"/><path d="M80.7,187.6L71.2,193.1L79.2,207L88.7,201.5Z" fill="var(--part2, rgba(201,128,58,0.14))" stroke="var(--ink, #1d2430)" stroke-width="0.6"  fill-rule="evenodd"/><circle cx="116.2" cy="176.4" r="7.2" fill="var(--bg, #fff)" stroke="var(--ink, #1d2430)" stroke-width="0.5" /><circle cx="116.2" cy="176.4" r="3.8" fill="none" stroke="var(--hid, #8a94a3)" stroke-width="0.35" stroke-dasharray="1.5 1"/><circle cx="126.8" cy="190.2" r="5.2" fill="none" stroke="var(--hid, #8a94a3)" stroke-width="0.35" stroke-dasharray="0.8 0.8"/><circle cx="79.9" cy="197.3" r="2" fill="none" stroke="var(--ink, #1d2430)" stroke-width="0.35" /><path d="M226.1,188.5L267.5,207L275.5,193.1L238.8,166.5Z" fill="var(--part2, rgba(201,128,58,0.14))" stroke="var(--ink, #1d2430)" stroke-width="0.45"  fill-rule="evenodd"/><path d="M230.9,180.1L260.5,197.1L263.5,191.9L233.9,174.9Z" fill="var(--part2, rgba(201,128,58,0.14))" stroke="var(--ink, #1d2430)" stroke-width="0.3"  fill-rule="evenodd"/><path d="M258,201.5L267.5,207L275.5,193.1L266,187.6Z" fill="var(--part2, rgba(201,128,58,0.14))" stroke="var(--ink, #1d2430)" stroke-width="0.6"  fill-rule="evenodd"/><circle cx="230.5" cy="176.4" r="7.2" fill="var(--bg, #fff)" stroke="var(--ink, #1d2430)" stroke-width="0.5" /><circle cx="230.5" cy="176.4" r="3.8" fill="none" stroke="var(--hid, #8a94a3)" stroke-width="0.35" stroke-dasharray="1.5 1"/><circle cx="237.2" cy="160.2" r="5.2" fill="none" stroke="var(--hid, #8a94a3)" stroke-width="0.35" stroke-dasharray="0.8 0.8"/><circle cx="266.8" cy="197.3" r="2" fill="none" stroke="var(--ink, #1d2430)" stroke-width="0.35" /><circle cx="173.4" cy="143.4" r="101.6" fill="none" stroke="var(--hid, #8a94a3)" stroke-width="0.35" stroke-dasharray="4 2"/><circle cx="173.4" cy="143.4" r="66" fill="none" stroke="var(--hid, #8a94a3)" stroke-width="0.35" stroke-dasharray="6 1.5 1 1.5"/><path d="M48.1,139L95.2,140.6" fill="none" stroke="var(--dim, #1f6fd1)" stroke-width="0.25" marker-end="url(#arr)"/><line x1="48.1" y1="139" x2="44.1" y2="139" stroke="var(--dim, #1f6fd1)" stroke-width="0.25"  /><text x="43.1" y="139" font-size="3.2" text-anchor="end" fill="var(--dim, #1f6fd1)"  dominant-baseline="middle" >Ø156.5 core</text><path d="M52.2,182.7L110.5,163.8" fill="none" stroke="var(--dim, #1f6fd1)" stroke-width="0.25" marker-end="url(#arr)"/><line x1="52.2" y1="182.7" x2="48.2" y2="182.7" stroke="var(--dim, #1f6fd1)" stroke-width="0.25"  /><text x="47.2" y="182.7" font-size="3.2" text-anchor="end" fill="var(--dim, #1f6fd1)"  dominant-baseline="middle" >Ø132.1 pad circle (0.65 D)</text><path d="M80.2,59.5L97.8,75.4" fill="none" stroke="var(--dim, #1f6fd1)" stroke-width="0.25" marker-end="url(#arr)"/><line x1="80.2" y1="59.5" x2="76.2" y2="59.5" stroke="var(--dim, #1f6fd1)" stroke-width="0.25"  /><text x="75.2" y="59.5" font-size="3.2" text-anchor="end" fill="var(--dim, #1f6fd1)"  dominant-baseline="middle" >Ø203.2 mirror (ghost)</text><path d="M266.5,59.5L201.6,117.9" fill="none" stroke="var(--dim, #1f6fd1)" stroke-width="0.25" marker-end="url(#arr)"/><line x1="266.5" y1="59.5" x2="270.5" y2="59.5" stroke="var(--dim, #1f6fd1)" stroke-width="0.25"  /><text x="271.5" y="59.5" font-size="3.2" text-anchor="start" fill="var(--dim, #1f6fd1)"  dominant-baseline="middle" >I Ø76 central vent</text><line x1="173.4" y1="77.3" x2="189.4" y2="24" stroke="var(--dim, #1f6fd1)" stroke-width="0.2"  /><circle cx="173.4" cy="77.3" r="0.5" fill="var(--dim, #1f6fd1)" stroke="var(--dim, #1f6fd1)" stroke-width="0.35" /><text x="190.4" y="24" font-size="3.2" text-anchor="start" fill="var(--dim, #1f6fd1)"  dominant-baseline="middle" >pad Ø14.4; G Ø7.6×13.5 from rear</text><line x1="156" y1="79.6" x2="130" y2="34" stroke="var(--dim, #1f6fd1)" stroke-width="0.2"  /><circle cx="156" cy="79.6" r="0.5" fill="var(--dim, #1f6fd1)" stroke="var(--dim, #1f6fd1)" stroke-width="0.35" /><text x="129" y="34" font-size="3.2" text-anchor="end" fill="var(--dim, #1f6fd1)"  dominant-baseline="middle" >push-bolt contact</text><line x1="181.4" y1="29.2" x2="181.4" y2="23.5" stroke="var(--dim, #1f6fd1)" stroke-width="0.2"  /><line x1="165.4" y1="29.2" x2="165.4" y2="23.5" stroke="var(--dim, #1f6fd1)" stroke-width="0.2"  /><line x1="181.4" y1="25" x2="165.4" y2="25" stroke="var(--dim, #1f6fd1)" stroke-width="0.25"  marker-start="url(#arr)" marker-end="url(#arr)"/><text x="173.4" y="23.8" font-size="3.2" text-anchor="middle" fill="var(--dim, #1f6fd1)" transform="rotate(360 173.4 23.8)" dominant-baseline="middle" >16</text><line x1="266.8" y1="197.3" x2="280.8" y2="211.3" stroke="var(--dim, #1f6fd1)" stroke-width="0.2"  /><circle cx="266.8" cy="197.3" r="0.5" fill="var(--dim, #1f6fd1)" stroke="var(--dim, #1f6fd1)" stroke-width="0.35" /><text x="281.8" y="211.3" font-size="3.2" text-anchor="start" fill="var(--dim, #1f6fd1)"  dominant-baseline="middle" >post 11×16, H Ø4×7.3 (×3)</text><text x="73.2" y="214" font-size="3.2" text-anchor="end" fill="var(--dim, #1f6fd1)"  dominant-baseline="auto" >arm 25.4 → 16 wide, rib 6×4 tall</text><text x="173.4" y="274.7" font-size="3.2" text-anchor="middle" fill="var(--ink, #1d2430)"  dominant-baseline="auto" >mirror-to-post gap 0.75 mm radial; posts at R102.4–R113.4</text><line x1="219.4" y1="107.9" x2="257.6" y2="111.9" stroke="var(--dim, #1f6fd1)" stroke-width="0.2"  /><circle cx="219.4" cy="107.9" r="0.5" fill="var(--dim, #1f6fd1)" stroke="var(--dim, #1f6fd1)" stroke-width="0.35" /><text x="258.6" y="111.9" font-size="3.2" text-anchor="start" fill="var(--dim, #1f6fd1)"  dominant-baseline="middle" >J Ø32 (×3) @ R58.1</text></g><g transform="translate(0,606.1)"><text x="4" y="8" font-size="4.2" text-anchor="start" fill="var(--ink, #1d2430)"  dominant-baseline="auto" font-weight="600">SECTION A–A through push-pull pair 1 (push bolt and spoke projected)</text><path d="M322.2,115.4L325.4,115.4L325.4,26L322.2,26Z" fill="none" stroke="var(--hid, #8a94a3)" stroke-width="0.35" stroke-dasharray="3 1.5" fill-rule="evenodd"/><path d="M65,115.4L68.2,115.4L68.2,26L65,26Z" fill="none" stroke="var(--hid, #8a94a3)" stroke-width="0.35" stroke-dasharray="3 1.5" fill-rule="evenodd"/><path d="M312.5,113.4L321.9,113.4L321.9,91.9L312.5,91.9Z" fill="var(--part, rgba(79,124,172,0.12))" stroke="var(--ink, #1d2430)" stroke-width="0.45"  fill-rule="evenodd"/><path d="M116.2,99.9L321.9,99.9L321.9,91.9L116.2,91.9Z" fill="var(--part, rgba(79,124,172,0.12))" stroke="var(--ink, #1d2430)" stroke-width="0.45"  fill-rule="evenodd"/><path d="M251.7,103.9L266.1,103.9L266.1,99.9L251.7,99.9Z" fill="var(--part, rgba(79,124,172,0.12))" stroke="var(--ink, #1d2430)" stroke-width="0.45" stroke-dasharray="2 1" fill-rule="evenodd"/><path d="M116.9,79.8L273.4,79.8L273.4,72.8L116.9,72.8Z" fill="var(--part2, rgba(201,128,58,0.14))" stroke="var(--ink, #1d2430)" stroke-width="0.45"  fill-rule="evenodd"/><path d="M297.5,79.8L308.5,79.8L308.5,31L297.5,31Z" fill="var(--part2, rgba(201,128,58,0.14))" stroke="var(--ink, #1d2430)" stroke-width="0.45"  fill-rule="evenodd"/><path d="M263.4,79.8L308.5,79.8L308.5,72.8L263.4,72.8Z" fill="var(--part2, rgba(201,128,58,0.14))" stroke="var(--ink, #1d2430)" stroke-width="0.45"  fill-rule="evenodd"/><path d="M263.4,72.8L297.5,72.8L297.5,68.8L263.4,68.8Z" fill="var(--part2, rgba(201,128,58,0.14))" stroke="var(--ink, #1d2430)" stroke-width="0.45"  fill-rule="evenodd"/><path d="M254,79.8L268.4,79.8L268.4,63.8L254,63.8Z" fill="var(--part2, rgba(201,128,58,0.14))" stroke="var(--ink, #1d2430)" stroke-width="0.45"  fill-rule="evenodd"/><path d="M257.4,79.8L265,79.8L265,66.3L257.4,66.3Z" fill="var(--bg, #fff)" stroke="var(--ink, #1d2430)" stroke-width="0.3"  fill-rule="evenodd"/><path d="M93.6,63.8L296.8,63.8L296.8,31.8L93.6,31.8Z" fill="var(--ghost, rgba(120,170,220,0.18))" stroke="var(--hid, #8a94a3)" stroke-width="0.35" stroke-dasharray="4 2" fill-rule="evenodd"/><path d="M293.8,31L308.5,31L308.5,28L293.8,28Z" fill="rgba(90,158,111,0.25)" stroke="var(--ink, #1d2430)" stroke-width="0.45"  fill-rule="evenodd"/><line x1="261.2" y1="109.9" x2="261.2" y2="69.8" stroke="var(--hid, #8a94a3)" stroke-width="0.25" stroke-dasharray="4 1 1 1" /><line x1="258.9" y1="119.9" x2="258.9" y2="77.8" stroke="var(--hid, #8a94a3)" stroke-width="0.25" stroke-dasharray="4 1 1 1" /><line x1="59.8" y1="113.4" x2="66.5" y2="113.4" stroke="var(--dim, #1f6fd1)" stroke-width="0.2"  /><line x1="59.8" y1="91.9" x2="66.5" y2="91.9" stroke="var(--dim, #1f6fd1)" stroke-width="0.2"  /><line x1="65" y1="113.4" x2="65" y2="91.9" stroke="var(--dim, #1f6fd1)" stroke-width="0.25"  marker-start="url(#arr)" marker-end="url(#arr)"/><text x="66.2" y="102.6" font-size="3.2" text-anchor="middle" fill="var(--dim, #1f6fd1)" transform="rotate(90 66.2 102.6)" dominant-baseline="middle" >21.5</text><line x1="77.3" y1="99.9" x2="78.1" y2="99.9" stroke="var(--dim, #1f6fd1)" stroke-width="0.2"  /><line x1="77.3" y1="91.9" x2="78.1" y2="91.9" stroke="var(--dim, #1f6fd1)" stroke-width="0.2"  /><line x1="76.6" y1="99.9" x2="76.6" y2="91.9" stroke="var(--dim, #1f6fd1)" stroke-width="0.25"  marker-start="url(#arr)" marker-end="url(#arr)"/><text x="77.8" y="95.9" font-size="3.2" text-anchor="middle" fill="var(--dim, #1f6fd1)" transform="rotate(90 77.8 95.9)" dominant-baseline="middle" >8</text><line x1="59.8" y1="91.9" x2="76.5" y2="91.9" stroke="var(--dim, #1f6fd1)" stroke-width="0.2"  /><line x1="59.8" y1="79.8" x2="76.5" y2="79.8" stroke="var(--dim, #1f6fd1)" stroke-width="0.2"  /><line x1="75" y1="91.9" x2="75" y2="79.8" stroke="var(--dim, #1f6fd1)" stroke-width="0.25"  marker-start="url(#arr)" marker-end="url(#arr)"/><text x="76.2" y="85.8" font-size="3.2" text-anchor="middle" fill="var(--dim, #1f6fd1)" transform="rotate(90 76.2 85.8)" dominant-baseline="middle" >12.1</text><line x1="125.7" y1="79.8" x2="126.5" y2="79.8" stroke="var(--dim, #1f6fd1)" stroke-width="0.2"  /><line x1="125.7" y1="72.8" x2="126.5" y2="72.8" stroke="var(--dim, #1f6fd1)" stroke-width="0.2"  /><line x1="125" y1="79.8" x2="125" y2="72.8" stroke="var(--dim, #1f6fd1)" stroke-width="0.25"  marker-start="url(#arr)" marker-end="url(#arr)"/><text x="126.2" y="76.3" font-size="3.2" text-anchor="middle" fill="var(--dim, #1f6fd1)" transform="rotate(90 126.2 76.3)" dominant-baseline="middle" >7</text><line x1="59.8" y1="79.8" x2="66.5" y2="79.8" stroke="var(--dim, #1f6fd1)" stroke-width="0.2"  /><line x1="59.8" y1="63.8" x2="66.5" y2="63.8" stroke="var(--dim, #1f6fd1)" stroke-width="0.2"  /><line x1="65" y1="79.8" x2="65" y2="63.8" stroke="var(--dim, #1f6fd1)" stroke-width="0.25"  marker-start="url(#arr)" marker-end="url(#arr)"/><text x="66.2" y="71.8" font-size="3.2" text-anchor="middle" fill="var(--dim, #1f6fd1)" transform="rotate(90 66.2 71.8)" dominant-baseline="middle" >16</text><line x1="59.8" y1="63.8" x2="76.5" y2="63.8" stroke="var(--dim, #1f6fd1)" stroke-width="0.2"  /><line x1="59.8" y1="31.8" x2="76.5" y2="31.8" stroke="var(--dim, #1f6fd1)" stroke-width="0.2"  /><line x1="75" y1="63.8" x2="75" y2="31.8" stroke="var(--dim, #1f6fd1)" stroke-width="0.25"  marker-start="url(#arr)" marker-end="url(#arr)"/><text x="76.2" y="47.8" font-size="3.2" text-anchor="middle" fill="var(--dim, #1f6fd1)" transform="rotate(90 76.2 47.8)" dominant-baseline="middle" >mirror 32</text><line x1="59.8" y1="113.4" x2="87.5" y2="113.4" stroke="var(--dim, #1f6fd1)" stroke-width="0.2"  /><line x1="59.8" y1="28" x2="87.5" y2="28" stroke="var(--dim, #1f6fd1)" stroke-width="0.2"  /><line x1="86" y1="113.4" x2="86" y2="28" stroke="var(--dim, #1f6fd1)" stroke-width="0.25"  marker-start="url(#arr)" marker-end="url(#arr)"/><text x="87.2" y="70.7" font-size="3.2" text-anchor="middle" fill="var(--dim, #1f6fd1)" transform="rotate(90 87.2 70.7)" dominant-baseline="middle" >overall 85.4</text><line x1="330.6" y1="79.8" x2="321.9" y2="79.8" stroke="var(--dim, #1f6fd1)" stroke-width="0.2"  /><line x1="330.6" y1="31" x2="321.9" y2="31" stroke="var(--dim, #1f6fd1)" stroke-width="0.2"  /><line x1="323.4" y1="79.8" x2="323.4" y2="31" stroke="var(--dim, #1f6fd1)" stroke-width="0.25"  marker-start="url(#arr)" marker-end="url(#arr)"/><text x="322.2" y="55.4" font-size="3.2" text-anchor="middle" fill="var(--dim, #1f6fd1)" transform="rotate(90 322.2 55.4)" dominant-baseline="middle" >post 48.8</text><line x1="330.6" y1="113.4" x2="311.9" y2="113.4" stroke="var(--dim, #1f6fd1)" stroke-width="0.2"  /><line x1="330.6" y1="106.6" x2="311.9" y2="106.6" stroke="var(--dim, #1f6fd1)" stroke-width="0.2"  /><line x1="313.4" y1="113.4" x2="313.4" y2="106.6" stroke="var(--dim, #1f6fd1)" stroke-width="0.25"  marker-start="url(#arr)" marker-end="url(#arr)"/><text x="312.2" y="110" font-size="3.2" text-anchor="middle" fill="var(--dim, #1f6fd1)" transform="rotate(90 312.2 110)" dominant-baseline="middle" >6.8</text><line x1="251.7" y1="107.7" x2="251.7" y2="108.5" stroke="var(--dim, #1f6fd1)" stroke-width="0.2"  /><line x1="266.1" y1="107.7" x2="266.1" y2="108.5" stroke="var(--dim, #1f6fd1)" stroke-width="0.2"  /><line x1="251.7" y1="107" x2="266.1" y2="107" stroke="var(--dim, #1f6fd1)" stroke-width="0.25"  marker-start="url(#arr)" marker-end="url(#arr)"/><text x="258.9" y="108.2" font-size="3.2" text-anchor="middle" fill="var(--dim, #1f6fd1)"  dominant-baseline="middle" >boss 12 tall</text><line x1="295.8" y1="29.5" x2="276.8" y2="25" stroke="var(--dim, #1f6fd1)" stroke-width="0.2"  /><circle cx="295.8" cy="29.5" r="0.5" fill="var(--dim, #1f6fd1)" stroke="var(--dim, #1f6fd1)" stroke-width="0.35" /><text x="275.8" y="25" font-size="3.2" text-anchor="end" fill="var(--dim, #1f6fd1)"  dominant-baseline="middle" >clip 3 thick, 0.8 above mirror</text><line x1="261.2" y1="73.1" x2="287.2" y2="83.8" stroke="var(--dim, #1f6fd1)" stroke-width="0.2"  /><circle cx="261.2" cy="73.1" r="0.5" fill="var(--dim, #1f6fd1)" stroke="var(--dim, #1f6fd1)" stroke-width="0.35" /><text x="288.2" y="83.8" font-size="3.2" text-anchor="start" fill="var(--dim, #1f6fd1)"  dominant-baseline="middle" >pull 1/4-20×1-1/4&quot;</text><line x1="258.9" y1="89.9" x2="222.9" y2="84.8" stroke="var(--dim, #1f6fd1)" stroke-width="0.2"  /><circle cx="258.9" cy="89.9" r="0.5" fill="var(--dim, #1f6fd1)" stroke="var(--dim, #1f6fd1)" stroke-width="0.35" /><text x="221.9" y="84.8" font-size="3.2" text-anchor="end" fill="var(--dim, #1f6fd1)"  dominant-baseline="middle" >push 1/4-20×1-1/4&quot; + jam nut</text><text x="195.2" y="123.4" font-size="3.2" text-anchor="middle" fill="var(--ink, #1d2430)"  dominant-baseline="auto" >z = 0 at the rear end of the tube; rear-plate skirt is flush with the tube end</text></g><g transform="translate(142.8,739.4)"><text x="4" y="8" font-size="4.2" text-anchor="start" fill="var(--ink, #1d2430)"  dominant-baseline="auto" font-weight="600">CLIP (×3) — top and side</text><path d="M20,20h14.8v16h-14.7Z" fill="rgba(90,158,111,0.2)" stroke="var(--ink, #1d2430)" stroke-width="0.45"  fill-rule="evenodd"/><circle cx="29.3" cy="28" r="2" fill="none" stroke="var(--ink, #1d2430)" stroke-width="0.35" /><line x1="20" y1="19.2" x2="20" y2="13.5" stroke="var(--dim, #1f6fd1)" stroke-width="0.2"  /><line x1="34.8" y1="19.2" x2="34.8" y2="13.5" stroke="var(--dim, #1f6fd1)" stroke-width="0.2"  /><line x1="20" y1="15" x2="34.8" y2="15" stroke="var(--dim, #1f6fd1)" stroke-width="0.25"  marker-start="url(#arr)" marker-end="url(#arr)"/><text x="27.4" y="13.8" font-size="3.2" text-anchor="middle" fill="var(--dim, #1f6fd1)"  dominant-baseline="middle" >14.8</text><line x1="35.6" y1="20" x2="41.3" y2="20" stroke="var(--dim, #1f6fd1)" stroke-width="0.2"  /><line x1="35.6" y1="36" x2="41.3" y2="36" stroke="var(--dim, #1f6fd1)" stroke-width="0.2"  /><line x1="39.8" y1="20" x2="39.8" y2="36" stroke="var(--dim, #1f6fd1)" stroke-width="0.25"  marker-start="url(#arr)" marker-end="url(#arr)"/><text x="41" y="28" font-size="3.2" text-anchor="middle" fill="var(--dim, #1f6fd1)" transform="rotate(90 41 28)" dominant-baseline="middle" >16</text><line x1="20" y1="35.2" x2="20" y2="29.5" stroke="var(--dim, #1f6fd1)" stroke-width="0.2"  /><line x1="29.3" y1="35.2" x2="29.3" y2="29.5" stroke="var(--dim, #1f6fd1)" stroke-width="0.2"  /><line x1="20" y1="31" x2="29.3" y2="31" stroke="var(--dim, #1f6fd1)" stroke-width="0.25"  marker-start="url(#arr)" marker-end="url(#arr)"/><text x="24.6" y="29.8" font-size="3.2" text-anchor="middle" fill="var(--dim, #1f6fd1)"  dominant-baseline="middle" >9.3</text><line x1="29.3" y1="28" x2="46.8" y2="44" stroke="var(--dim, #1f6fd1)" stroke-width="0.2"  /><circle cx="29.3" cy="28" r="0.5" fill="var(--dim, #1f6fd1)" stroke="var(--dim, #1f6fd1)" stroke-width="0.35" /><text x="47.8" y="44" font-size="3.2" text-anchor="start" fill="var(--dim, #1f6fd1)"  dominant-baseline="middle" >K Ø4 thru</text><path d="M20,46h14.8v3h-14.7Z" fill="rgba(90,158,111,0.2)" stroke="var(--ink, #1d2430)" stroke-width="0.45"  fill-rule="evenodd"/><line x1="20.8" y1="49" x2="26.5" y2="49" stroke="var(--dim, #1f6fd1)" stroke-width="0.2"  /><line x1="20.8" y1="46" x2="26.5" y2="46" stroke="var(--dim, #1f6fd1)" stroke-width="0.2"  /><line x1="25" y1="49" x2="25" y2="46" stroke="var(--dim, #1f6fd1)" stroke-width="0.25"  marker-start="url(#arr)" marker-end="url(#arr)"/><text x="26.2" y="47.5" font-size="3.2" text-anchor="middle" fill="var(--dim, #1f6fd1)" transform="rotate(90 26.2 47.5)" dominant-baseline="middle" >3</text><text x="20" y="63" font-size="3.2" text-anchor="start" fill="var(--ink, #1d2430)"  dominant-baseline="auto" >inner (left) end overlaps the mirror face by 3 mm</text></g></svg>